<?xml version="1.0" encoding="utf-8"?>
<!-- Generator: Adobe Illustrator 24.3.0, SVG Export Plug-In . SVG Version: 6.00 Build 0)  -->
<svg version="1.1" id="Ebene_1" xmlns="http://www.w3.org/2000/svg" xmlns:xlink="http://www.w3.org/1999/xlink" x="0px" y="0px"
	 viewBox="0 0 2241.78 16.62" style="enable-background:new 0 0 2241.78 16.62;" xml:space="preserve">
<style type="text/css">
	.st0{fill:#CC1517;}
	.st1{fill:#FFFFFF;}
</style>
<g>
	<polygon class="st0" points="69.49,16.62 0,16.62 18.02,0 87.51,0 	"/>
	<polygon class="st0" points="208.34,16.62 138.85,16.62 156.86,0 226.35,0 	"/>
	<polygon class="st1" points="138.95,16.62 69.46,16.62 87.47,0 156.96,0 	"/>
	<polygon class="st1" points="277.85,16.62 208.36,16.62 226.38,0 295.87,0 	"/>
	<polygon class="st0" points="347.6,16.62 278.11,16.62 296.13,0 365.61,0 	"/>
	<polygon class="st0" points="486.45,16.62 416.96,16.62 434.97,0 504.46,0 	"/>
	<polygon class="st1" points="417.06,16.62 347.57,16.62 365.58,0 435.07,0 	"/>
	<polygon class="st1" points="555.96,16.62 486.47,16.62 504.49,0 573.98,0 	"/>
	<polygon class="st0" points="625.12,16.62 555.63,16.62 573.64,0 643.13,0 	"/>
	<polygon class="st0" points="763.96,16.62 694.47,16.62 712.49,0 781.98,0 	"/>
	<polygon class="st1" points="694.57,16.62 625.08,16.62 643.1,0 712.59,0 	"/>
	<polygon class="st1" points="833.48,16.62 763.99,16.62 782,0 851.49,0 	"/>
	<polygon class="st0" points="903.23,16.62 833.74,16.62 851.75,0 921.24,0 	"/>
	<polygon class="st0" points="1042.07,16.62 972.58,16.62 990.6,0 1060.09,0 	"/>
	<polygon class="st1" points="972.68,16.62 903.19,16.62 921.21,0 990.7,0 	"/>
	<polygon class="st1" points="1111.59,16.62 1042.1,16.62 1060.11,0 1129.6,0 	"/>
</g>
<g>
	<polygon class="st0" points="1181.66,16.62 1112.18,16.62 1130.19,0 1199.68,0 	"/>
	<polygon class="st0" points="1320.51,16.62 1251.02,16.62 1269.04,0 1338.53,0 	"/>
	<polygon class="st1" points="1251.12,16.62 1181.63,16.62 1199.65,0 1269.14,0 	"/>
	<polygon class="st1" points="1390.03,16.62 1320.54,16.62 1338.55,0 1408.04,0 	"/>
	<polygon class="st0" points="1459.77,16.62 1390.29,16.62 1408.3,0 1477.79,0 	"/>
	<polygon class="st0" points="1598.62,16.62 1529.13,16.62 1547.15,0 1616.64,0 	"/>
	<polygon class="st1" points="1529.23,16.62 1459.74,16.62 1477.76,0 1547.25,0 	"/>
	<polygon class="st1" points="1668.14,16.62 1598.65,16.62 1616.66,0 1686.15,0 	"/>
	<polygon class="st0" points="1737.29,16.62 1667.8,16.62 1685.82,0 1755.31,0 	"/>
	<polygon class="st0" points="1876.14,16.62 1806.65,16.62 1824.66,0 1894.15,0 	"/>
	<polygon class="st1" points="1806.75,16.62 1737.26,16.62 1755.27,0 1824.76,0 	"/>
	<polygon class="st1" points="1945.65,16.62 1876.16,16.62 1894.18,0 1963.67,0 	"/>
	<polygon class="st0" points="2015.4,16.62 1945.91,16.62 1963.93,0 2033.42,0 	"/>
	<polygon class="st0" points="2154.25,16.62 2084.76,16.62 2102.77,0 2172.26,0 	"/>
	<polygon class="st1" points="2084.86,16.62 2015.37,16.62 2033.38,0 2102.87,0 	"/>
	<polygon class="st1" points="2223.76,16.62 2154.27,16.62 2172.29,0 2241.78,0 	"/>
</g>
</svg>
